<?xml version="1.0" encoding="iso-8859-1"?>
<!-- Uploaded to: SVG Repo, www.svgrepo.com, Generator: SVG Repo Mixer Tools -->
<svg fill="#000000" height="800px" width="800px" version="1.1" id="Layer_1" xmlns="http://www.w3.org/2000/svg" xmlns:xlink="http://www.w3.org/1999/xlink" 
	 viewBox="0 0 512 512" xml:space="preserve">
<g>
	<g>
		<path d="M196.53,277.579c-38.967,10.29-72.376,36.578-91.658,72.121l13.777,7.473c17.231-31.761,47.077-55.248,81.883-64.441
			L196.53,277.579z"/>
	</g>
</g>
<g>
	<g>
		<path d="M305.857,396.987l14.052,6.941c7.114-14.401,21.462-23.347,37.445-23.347v-15.674
			C335.364,364.908,315.631,377.199,305.857,396.987z"/>
	</g>
</g>
<g>
	<g>
		<path d="M291.603,411.429c3.872-31.472,30.722-55.925,63.187-55.925c27.324,0,51.57,17.394,60.332,43.285l14.846-5.025
			c-1.295-3.824-2.868-7.495-4.68-11.003l36.274-16.934c0.057,0.128,0.109,0.259,0.168,0.388
			c2.945,6.322,8.173,11.118,14.723,13.504c2.913,1.062,5.932,1.589,8.942,1.589c3.76,0,7.506-0.824,11.014-2.462
			c13.036-6.084,18.696-21.649,12.619-34.696c-2.945-6.322-8.173-11.118-14.723-13.504c-0.313-0.114-0.629-0.216-0.946-0.319
			c2.644-6.498,2.692-14.035-0.497-20.88c-2.945-6.322-8.173-11.118-14.723-13.504c-6.551-2.385-13.638-2.076-19.957,0.872
			c-13.035,6.084-18.696,21.649-12.619,34.697c0.062,0.133,0.139,0.254,0.203,0.385l-46.384,21.653
			c-12.852-8.733-28.28-13.721-44.595-13.721c-41.117,0-75.024,31.463-78.969,71.599H71.769
			c4.11-85.818,75.326-154.374,162.283-154.374c53.574,0,103.685,26.363,134.05,70.522l12.915-8.88
			c-33.289-48.413-88.229-77.316-146.965-77.316c-95.602,0-173.844,75.585-177.967,170.048H0v41.796h512v-41.796H291.603z
			 M485.374,344.739c1.201,0,2.405,0.21,3.567,0.633c2.615,0.953,4.704,2.869,5.881,5.396c2.432,5.218,0.169,11.443-5.042,13.875
			c-2.521,1.177-5.349,1.301-7.961,0.348c-2.615-0.953-4.703-2.869-5.881-5.396c-2.431-5.218-0.17-11.443,5.041-13.875
			C482.379,345.067,483.873,344.739,485.374,344.739z M464.816,311.017c1.4-0.653,2.894-0.981,4.395-0.981
			c1.201,0,2.405,0.21,3.567,0.633c2.615,0.953,4.703,2.869,5.88,5.396c2.431,5.218,0.17,11.443-5.041,13.875
			c-2.521,1.174-5.349,1.3-7.961,0.348c-2.615-0.953-4.704-2.868-5.881-5.395C457.343,319.675,459.605,313.45,464.816,311.017z
			 M457.425,343.754c0.927,0.468,1.875,0.901,2.865,1.261c0.315,0.115,0.634,0.199,0.952,0.301c-0.522,1.281-0.94,2.602-1.255,3.95
			l-43.32,20.223c-1.324-1.647-2.707-3.24-4.151-4.77L457.425,343.754z M496.327,437.551H15.673v-10.449h480.653V437.551z"/>
	</g>
</g>
<g>
	<g>
		<path d="M169.844,130.074c-8.076-6.729-12.645-10.965-12.645-19.755c0-8.788,4.569-13.023,12.645-19.752
			c8.146-6.788,18.285-15.236,18.285-31.792h-15.673c0,8.787-4.569,13.022-12.644,19.751c-8.146,6.788-18.285,15.236-18.285,31.793
			c0,16.559,10.139,25.008,18.285,31.796c8.076,6.729,12.644,10.965,12.644,19.754s-4.569,13.026-12.645,19.755
			c-8.146,6.789-18.285,15.238-18.285,31.796h15.673c0-8.789,4.569-13.026,12.645-19.755c8.146-6.789,18.285-15.238,18.285-31.796
			C188.129,145.312,177.991,136.863,169.844,130.074z"/>
	</g>
</g>
<g>
	<g>
		<path d="M216.342,130.074c-8.076-6.729-12.645-10.965-12.645-19.755c0-8.788,4.569-13.023,12.645-19.752
			c8.146-6.788,18.285-15.236,18.285-31.792h-15.673c0,8.787-4.569,13.022-12.644,19.751c-8.146,6.788-18.285,15.236-18.285,31.793
			c0,16.559,10.139,25.008,18.285,31.796c8.076,6.729,12.644,10.965,12.644,19.754s-4.569,13.026-12.645,19.755
			c-8.146,6.789-18.285,15.238-18.285,31.796h15.673c0-8.789,4.569-13.026,12.645-19.755c8.146-6.789,18.285-15.238,18.285-31.796
			C234.627,145.312,224.489,136.863,216.342,130.074z"/>
	</g>
</g>
<g>
	<g>
		<path d="M262.317,130.074c-8.076-6.729-12.645-10.965-12.645-19.755c0-8.788,4.569-13.023,12.645-19.752
			c8.146-6.788,18.284-15.236,18.284-31.792h-15.673c0,8.787-4.569,13.022-12.644,19.751c-8.146,6.788-18.285,15.236-18.285,31.793
			c0.001,16.559,10.14,25.008,18.286,31.796c8.076,6.729,12.644,10.965,12.644,19.754s-4.569,13.026-12.645,19.755
			c-8.146,6.789-18.285,15.238-18.285,31.796h15.673c0-8.789,4.569-13.026,12.645-19.755c8.146-6.789,18.284-15.238,18.284-31.796
			C280.601,145.312,270.464,136.863,262.317,130.074z"/>
	</g>
</g>
<g>
	<g>
		<path d="M308.293,130.074c-8.075-6.729-12.645-10.965-12.645-19.755c0-8.788,4.569-13.023,12.645-19.752
			c8.146-6.788,18.285-15.236,18.285-31.792h-15.673c0,8.787-4.568,13.022-12.644,19.751c-8.146,6.788-18.285,15.236-18.285,31.793
			c0,16.559,10.138,25.008,18.285,31.796c8.076,6.729,12.644,10.965,12.644,19.754s-4.568,13.026-12.645,19.755
			c-8.146,6.789-18.285,15.238-18.285,31.796h15.673c0-8.789,4.569-13.026,12.645-19.755c8.146-6.789,18.285-15.238,18.285-31.796
			C326.578,145.312,316.44,136.863,308.293,130.074z"/>
	</g>
</g>
</svg>